<svg xmlns="http://www.w3.org/2000/svg" width="37.993" height="28.953" viewBox="0 0 37.993 28.953"><path d="M37.467,79.736,24.8,92.4a1.812,1.812,0,0,1-3.091-1.282V83.882H11.459a1.8,1.8,0,0,1-1.809-1.809V74.836a1.8,1.8,0,0,1,1.809-1.809H21.711V65.79A1.813,1.813,0,0,1,24.8,64.508L37.467,77.173A1.825,1.825,0,0,1,37.467,79.736ZM14.474,92.024V89.008a.907.907,0,0,0-.9-.9H7.237a2.41,2.41,0,0,1-2.412-2.412V71.217a2.41,2.41,0,0,1,2.412-2.412h6.332a.907.907,0,0,0,.9-.9V64.885a.907.907,0,0,0-.9-.9H7.237A7.239,7.239,0,0,0,0,71.217V85.691a7.239,7.239,0,0,0,7.237,7.237h6.332A.907.907,0,0,0,14.474,92.024Z" transform="translate(0 -63.979)"/></svg>