<svg xmlns="http://www.w3.org/2000/svg" width="33" height="33" viewBox="0 0 33 33"><defs><style>.a{opacity:0.59;}</style></defs><g class="a"><path d="M291.756,508.668q-.449.073-.9.135Q291.307,508.741,291.756,508.668Zm0,0" transform="translate(-272.389 -476.136)"/><path d="M299.769,507.793c-.143.026-.286.05-.429.075C299.482,507.843,299.626,507.819,299.769,507.793Zm0,0" transform="translate(-280.183 -475.383)"/><path d="M278.666,510.34q-.525.059-1.056.1Q278.14,510.4,278.666,510.34Zm0,0" transform="translate(-260.031 -477.573)"/><path d="M286.952,509.738c-.168.022-.338.043-.506.063C286.614,509.781,286.784,509.76,286.952,509.738Zm0,0" transform="translate(-268.138 -477.055)"/><path d="M307.043,506.41l-.379.079Zm0,0" transform="translate(-287.022 -474.194)"/><path d="M324.79,502.113l-.306.085Zm0,0" transform="translate(-303.676 -470.5)"/><path d="M319.392,503.543l-.333.087Zm0,0" transform="translate(-298.607 -471.73)"/><path d="M312.421,505.254c-.117.027-.236.053-.354.079C312.185,505.307,312.3,505.281,312.421,505.254Zm0,0" transform="translate(-292.07 -473.201)"/><path d="M274.048,511.09q-.284.024-.568.043Q273.765,511.114,274.048,511.09Zm0,0" transform="translate(-256.019 -478.218)"/><path d="M33,16.5A16.5,16.5,0,1,0,16.5,33c.1,0,.193,0,.29,0V20.152H13.245V16.02H16.79V12.98c0-3.526,2.152-5.445,5.3-5.445a29.181,29.181,0,0,1,3.178.162v3.685H23.1c-1.711,0-2.042.813-2.042,2.006V16.02h4.091l-.533,4.131H21.055V32.363A16.509,16.509,0,0,0,33,16.5Zm0,0"/><path d="M266.016,511.43q-.561.036-1.126.056Q265.455,511.467,266.016,511.43Zm0,0" transform="translate(-248.137 -478.51)"/><path d="M261.1,511.836q-.3.01-.6.015Q260.8,511.846,261.1,511.836Zm0,0" transform="translate(-243.879 -478.859)"/></g></svg>